<svg xmlns="http://www.w3.org/2000/svg" xmlns:xlink="http://www.w3.org/1999/xlink" width="100" zoomAndPan="magnify" viewBox="0 0 75 74.999997" height="100" preserveAspectRatio="xMidYMid meet" version="1.0"><defs><filter x="0%" y="0%" width="100%" height="100%" id="59163257f5"><feColorMatrix values="0 0 0 0 1 0 0 0 0 1 0 0 0 0 1 0 0 0 1 0" color-interpolation-filters="sRGB"/></filter><g/><clipPath id="eb0be2441a"><path d="M 3 0 L 71 0 L 71 74 L 3 74 Z M 3 0 " clip-rule="nonzero"/></clipPath><clipPath id="79afc135c2"><path d="M 24.785156 90.394531 L -15.890625 27.382812 L 50.273438 -15.324219 L 90.949219 47.6875 Z M 24.785156 90.394531 " clip-rule="nonzero"/></clipPath><clipPath id="06092d0f9f"><path d="M 24.785156 90.394531 L -15.890625 27.382812 L 50.273438 -15.324219 L 90.949219 47.6875 Z M 24.785156 90.394531 " clip-rule="nonzero"/></clipPath><clipPath id="e97966bbf8"><path d="M 0 0 L 75 0 L 75 75 L 0 75 Z M 0 0 " clip-rule="nonzero"/></clipPath><linearGradient x1="-26.742001" gradientTransform="matrix(0.44032, 0, 0, 0.440335, 11.77503, -4.474366)" y1="106" x2="143.588794" gradientUnits="userSpaceOnUse" y2="106" id="fd0cf91ac2"><stop stop-opacity="1" stop-color="rgb(36.468506%, 87.838745%, 90.19928%)" offset="0"/><stop stop-opacity="1" stop-color="rgb(36.468506%, 87.838745%, 90.19928%)" offset="0.125"/><stop stop-opacity="1" stop-color="rgb(36.468506%, 87.838745%, 90.19928%)" offset="0.15625"/><stop stop-opacity="1" stop-color="rgb(36.16333%, 87.347412%, 90.011597%)" offset="0.160156"/><stop stop-opacity="1" stop-color="rgb(35.85968%, 86.857605%, 89.825439%)" offset="0.164062"/><stop stop-opacity="1" stop-color="rgb(35.522461%, 86.314392%, 89.619446%)" offset="0.167969"/><stop stop-opacity="1" stop-color="rgb(35.186768%, 85.771179%, 89.413452%)" offset="0.171875"/><stop stop-opacity="1" stop-color="rgb(34.849548%, 85.227966%, 89.205933%)" offset="0.175781"/><stop stop-opacity="1" stop-color="rgb(34.513855%, 84.684753%, 88.999939%)" offset="0.179687"/><stop stop-opacity="1" stop-color="rgb(34.176636%, 84.141541%, 88.792419%)" offset="0.183594"/><stop stop-opacity="1" stop-color="rgb(33.839417%, 83.598328%, 88.586426%)" offset="0.1875"/><stop stop-opacity="1" stop-color="rgb(33.502197%, 83.055115%, 88.380432%)" offset="0.191406"/><stop stop-opacity="1" stop-color="rgb(33.166504%, 82.511902%, 88.174438%)" offset="0.195312"/><stop stop-opacity="1" stop-color="rgb(32.829285%, 81.968689%, 87.966919%)" offset="0.199219"/><stop stop-opacity="1" stop-color="rgb(32.492065%, 81.425476%, 87.760925%)" offset="0.203125"/><stop stop-opacity="1" stop-color="rgb(32.154846%, 80.882263%, 87.553406%)" offset="0.207031"/><stop stop-opacity="1" stop-color="rgb(31.819153%, 80.33905%, 87.347412%)" offset="0.210937"/><stop stop-opacity="1" stop-color="rgb(31.481934%, 79.795837%, 87.141418%)" offset="0.214844"/><stop stop-opacity="1" stop-color="rgb(31.144714%, 79.252625%, 86.935425%)" offset="0.21875"/><stop stop-opacity="1" stop-color="rgb(30.807495%, 78.709412%, 86.727905%)" offset="0.222656"/><stop stop-opacity="1" stop-color="rgb(30.471802%, 78.166199%, 86.521912%)" offset="0.226562"/><stop stop-opacity="1" stop-color="rgb(30.134583%, 77.622986%, 86.314392%)" offset="0.230469"/><stop stop-opacity="1" stop-color="rgb(29.797363%, 77.079773%, 86.108398%)" offset="0.234375"/><stop stop-opacity="1" stop-color="rgb(29.460144%, 76.53656%, 85.902405%)" offset="0.238281"/><stop stop-opacity="1" stop-color="rgb(29.124451%, 75.993347%, 85.696411%)" offset="0.242187"/><stop stop-opacity="1" stop-color="rgb(28.787231%, 75.450134%, 85.488892%)" offset="0.246094"/><stop stop-opacity="1" stop-color="rgb(28.450012%, 74.906921%, 85.282898%)" offset="0.25"/><stop stop-opacity="1" stop-color="rgb(28.112793%, 74.363708%, 85.075378%)" offset="0.253906"/><stop stop-opacity="1" stop-color="rgb(27.7771%, 73.820496%, 84.869385%)" offset="0.257812"/><stop stop-opacity="1" stop-color="rgb(27.43988%, 73.277283%, 84.663391%)" offset="0.261719"/><stop stop-opacity="1" stop-color="rgb(27.104187%, 72.73407%, 84.457397%)" offset="0.265625"/><stop stop-opacity="1" stop-color="rgb(26.766968%, 72.190857%, 84.249878%)" offset="0.269531"/><stop stop-opacity="1" stop-color="rgb(26.429749%, 71.647644%, 84.043884%)" offset="0.273438"/><stop stop-opacity="1" stop-color="rgb(26.092529%, 71.104431%, 83.836365%)" offset="0.277344"/><stop stop-opacity="1" stop-color="rgb(25.756836%, 70.561218%, 83.630371%)" offset="0.28125"/><stop stop-opacity="1" stop-color="rgb(25.419617%, 70.018005%, 83.424377%)" offset="0.285156"/><stop stop-opacity="1" stop-color="rgb(25.082397%, 69.474792%, 83.218384%)" offset="0.289062"/><stop stop-opacity="1" stop-color="rgb(24.745178%, 68.93158%, 83.010864%)" offset="0.292969"/><stop stop-opacity="1" stop-color="rgb(24.409485%, 68.388367%, 82.804871%)" offset="0.296875"/><stop stop-opacity="1" stop-color="rgb(24.072266%, 67.845154%, 82.597351%)" offset="0.300781"/><stop stop-opacity="1" stop-color="rgb(23.735046%, 67.301941%, 82.391357%)" offset="0.304687"/><stop stop-opacity="1" stop-color="rgb(23.397827%, 66.758728%, 82.185364%)" offset="0.308594"/><stop stop-opacity="1" stop-color="rgb(23.062134%, 66.215515%, 81.97937%)" offset="0.3125"/><stop stop-opacity="1" stop-color="rgb(22.724915%, 65.672302%, 81.771851%)" offset="0.316406"/><stop stop-opacity="1" stop-color="rgb(22.387695%, 65.129089%, 81.565857%)" offset="0.320312"/><stop stop-opacity="1" stop-color="rgb(22.050476%, 64.585876%, 81.359863%)" offset="0.324219"/><stop stop-opacity="1" stop-color="rgb(21.714783%, 64.042664%, 81.15387%)" offset="0.328125"/><stop stop-opacity="1" stop-color="rgb(21.377563%, 63.499451%, 80.94635%)" offset="0.332031"/><stop stop-opacity="1" stop-color="rgb(21.040344%, 62.956238%, 80.740356%)" offset="0.335938"/><stop stop-opacity="1" stop-color="rgb(20.703125%, 62.413025%, 80.532837%)" offset="0.339844"/><stop stop-opacity="1" stop-color="rgb(20.367432%, 61.869812%, 80.326843%)" offset="0.34375"/><stop stop-opacity="1" stop-color="rgb(20.030212%, 61.326599%, 80.12085%)" offset="0.347656"/><stop stop-opacity="1" stop-color="rgb(19.694519%, 60.783386%, 79.914856%)" offset="0.351562"/><stop stop-opacity="1" stop-color="rgb(19.3573%, 60.240173%, 79.707336%)" offset="0.355469"/><stop stop-opacity="1" stop-color="rgb(19.020081%, 59.69696%, 79.501343%)" offset="0.359375"/><stop stop-opacity="1" stop-color="rgb(18.682861%, 59.153748%, 79.293823%)" offset="0.363281"/><stop stop-opacity="1" stop-color="rgb(18.347168%, 58.610535%, 79.08783%)" offset="0.367188"/><stop stop-opacity="1" stop-color="rgb(18.009949%, 58.067322%, 78.881836%)" offset="0.371094"/><stop stop-opacity="1" stop-color="rgb(17.672729%, 57.524109%, 78.675842%)" offset="0.375"/><stop stop-opacity="1" stop-color="rgb(17.33551%, 56.980896%, 78.468323%)" offset="0.378906"/><stop stop-opacity="1" stop-color="rgb(16.999817%, 56.437683%, 78.262329%)" offset="0.382812"/><stop stop-opacity="1" stop-color="rgb(16.662598%, 55.89447%, 78.05481%)" offset="0.386719"/><stop stop-opacity="1" stop-color="rgb(16.325378%, 55.351257%, 77.848816%)" offset="0.390625"/><stop stop-opacity="1" stop-color="rgb(15.988159%, 54.808044%, 77.642822%)" offset="0.394531"/><stop stop-opacity="1" stop-color="rgb(15.652466%, 54.264832%, 77.436829%)" offset="0.398437"/><stop stop-opacity="1" stop-color="rgb(15.315247%, 53.721619%, 77.229309%)" offset="0.402344"/><stop stop-opacity="1" stop-color="rgb(14.978027%, 53.178406%, 77.023315%)" offset="0.40625"/><stop stop-opacity="1" stop-color="rgb(14.640808%, 52.635193%, 76.815796%)" offset="0.410156"/><stop stop-opacity="1" stop-color="rgb(14.305115%, 52.09198%, 76.609802%)" offset="0.414062"/><stop stop-opacity="1" stop-color="rgb(13.967896%, 51.548767%, 76.403809%)" offset="0.417969"/><stop stop-opacity="1" stop-color="rgb(13.632202%, 51.005554%, 76.197815%)" offset="0.421875"/><stop stop-opacity="1" stop-color="rgb(13.294983%, 50.462341%, 75.990295%)" offset="0.425781"/><stop stop-opacity="1" stop-color="rgb(12.957764%, 49.919128%, 75.784302%)" offset="0.429688"/><stop stop-opacity="1" stop-color="rgb(12.620544%, 49.375916%, 75.576782%)" offset="0.433594"/><stop stop-opacity="1" stop-color="rgb(12.284851%, 48.832703%, 75.370789%)" offset="0.4375"/><stop stop-opacity="1" stop-color="rgb(11.947632%, 48.28949%, 75.164795%)" offset="0.441406"/><stop stop-opacity="1" stop-color="rgb(11.610413%, 47.746277%, 74.958801%)" offset="0.445312"/><stop stop-opacity="1" stop-color="rgb(11.273193%, 47.203064%, 74.751282%)" offset="0.449219"/><stop stop-opacity="1" stop-color="rgb(10.9375%, 46.659851%, 74.545288%)" offset="0.453125"/><stop stop-opacity="1" stop-color="rgb(10.600281%, 46.116638%, 74.337769%)" offset="0.457031"/><stop stop-opacity="1" stop-color="rgb(10.263062%, 45.573425%, 74.131775%)" offset="0.460938"/><stop stop-opacity="1" stop-color="rgb(9.925842%, 45.030212%, 73.925781%)" offset="0.464844"/><stop stop-opacity="1" stop-color="rgb(9.590149%, 44.487%, 73.719788%)" offset="0.46875"/><stop stop-opacity="1" stop-color="rgb(9.25293%, 43.943787%, 73.512268%)" offset="0.472656"/><stop stop-opacity="1" stop-color="rgb(8.91571%, 43.400574%, 73.306274%)" offset="0.476562"/><stop stop-opacity="1" stop-color="rgb(8.578491%, 42.857361%, 73.098755%)" offset="0.480469"/><stop stop-opacity="1" stop-color="rgb(8.242798%, 42.314148%, 72.892761%)" offset="0.484375"/><stop stop-opacity="1" stop-color="rgb(7.905579%, 41.770935%, 72.686768%)" offset="0.488281"/><stop stop-opacity="1" stop-color="rgb(7.568359%, 41.227722%, 72.480774%)" offset="0.492187"/><stop stop-opacity="1" stop-color="rgb(7.23114%, 40.684509%, 72.273254%)" offset="0.496094"/><stop stop-opacity="1" stop-color="rgb(6.895447%, 40.141296%, 72.067261%)" offset="0.5"/><stop stop-opacity="1" stop-color="rgb(6.558228%, 39.598083%, 71.859741%)" offset="0.503906"/><stop stop-opacity="1" stop-color="rgb(6.222534%, 39.054871%, 71.653748%)" offset="0.507812"/><stop stop-opacity="1" stop-color="rgb(5.885315%, 38.511658%, 71.447754%)" offset="0.511719"/><stop stop-opacity="1" stop-color="rgb(5.548096%, 37.968445%, 71.24176%)" offset="0.515625"/><stop stop-opacity="1" stop-color="rgb(5.210876%, 37.425232%, 71.034241%)" offset="0.519531"/><stop stop-opacity="1" stop-color="rgb(4.875183%, 36.882019%, 70.828247%)" offset="0.523438"/><stop stop-opacity="1" stop-color="rgb(4.537964%, 36.338806%, 70.620728%)" offset="0.527344"/><stop stop-opacity="1" stop-color="rgb(4.200745%, 35.795593%, 70.414734%)" offset="0.53125"/><stop stop-opacity="1" stop-color="rgb(3.863525%, 35.25238%, 70.20874%)" offset="0.535156"/><stop stop-opacity="1" stop-color="rgb(3.527832%, 34.709167%, 70.002747%)" offset="0.539062"/><stop stop-opacity="1" stop-color="rgb(3.190613%, 34.165955%, 69.795227%)" offset="0.542969"/><stop stop-opacity="1" stop-color="rgb(2.853394%, 33.622742%, 69.589233%)" offset="0.546875"/><stop stop-opacity="1" stop-color="rgb(2.516174%, 33.079529%, 69.381714%)" offset="0.550781"/><stop stop-opacity="1" stop-color="rgb(2.180481%, 32.536316%, 69.17572%)" offset="0.554688"/><stop stop-opacity="1" stop-color="rgb(1.843262%, 31.993103%, 68.969727%)" offset="0.558594"/><stop stop-opacity="1" stop-color="rgb(1.506042%, 31.44989%, 68.763733%)" offset="0.5625"/><stop stop-opacity="1" stop-color="rgb(1.168823%, 30.906677%, 68.556213%)" offset="0.566406"/><stop stop-opacity="1" stop-color="rgb(0.83313%, 30.363464%, 68.35022%)" offset="0.570312"/><stop stop-opacity="1" stop-color="rgb(0.495911%, 29.820251%, 68.1427%)" offset="0.574219"/><stop stop-opacity="1" stop-color="rgb(0.158691%, 29.277039%, 67.936707%)" offset="0.578125"/><stop stop-opacity="1" stop-color="rgb(0.0793457%, 29.147339%, 67.887878%)" offset="0.59375"/><stop stop-opacity="1" stop-color="rgb(0%, 29.019165%, 67.83905%)" offset="0.625"/><stop stop-opacity="1" stop-color="rgb(0%, 29.019165%, 67.83905%)" offset="0.75"/><stop stop-opacity="1" stop-color="rgb(0%, 29.019165%, 67.83905%)" offset="1"/></linearGradient><clipPath id="32d31e0903"><rect x="0" width="75" y="0" height="75"/></clipPath><clipPath id="8019847fd9"><rect x="0" width="75" y="0" height="75"/></clipPath><clipPath id="f88e8efadd"><rect x="0" width="75" y="0" height="75"/></clipPath><mask id="8ea4705df3"><g filter="url(#59163257f5)"><g transform="matrix(1, 0, 0, 1, 0, -0.000000000000001893)"><g clip-path="url(#f88e8efadd)"><g transform="matrix(1, 0, 0, 1, 0, -0.000000000000001893)"><g clip-path="url(#8019847fd9)"><g fill="#000000" fill-opacity="1"><g transform="translate(11.782152, 64.657205)"><g><path d="M 30.75 -38.5 C 30.75 -35.5 30.007812 -32.769531 28.53125 -30.3125 C 27.050781 -27.863281 25.078125 -25.816406 22.609375 -24.171875 C 23.910156 -23.910156 25.035156 -23.460938 25.984375 -22.828125 C 26.941406 -22.203125 27.734375 -21.429688 28.359375 -20.515625 C 28.992188 -19.609375 29.472656 -18.578125 29.796875 -17.421875 C 30.128906 -16.273438 30.296875 -15.070312 30.296875 -13.8125 C 30.296875 -11.332031 29.71875 -9.171875 28.5625 -7.328125 C 27.414062 -5.484375 25.925781 -3.960938 24.09375 -2.765625 C 22.269531 -1.578125 20.238281 -0.6875 18 -0.09375 C 15.769531 0.488281 13.546875 0.78125 11.328125 0.78125 C 10.117188 0.78125 8.90625 0.691406 7.6875 0.515625 C 6.46875 0.347656 5.316406 0.046875 4.234375 -0.390625 C 3.835938 -0.523438 3.507812 -1.054688 3.25 -1.984375 C 2.988281 -2.921875 2.78125 -4.0625 2.625 -5.40625 C 2.476562 -6.75 2.363281 -8.203125 2.28125 -9.765625 C 2.195312 -11.328125 2.128906 -12.828125 2.078125 -14.265625 C 2.035156 -15.703125 2.015625 -16.960938 2.015625 -18.046875 C 2.015625 -19.128906 2.015625 -19.890625 2.015625 -20.328125 C 2.015625 -21.847656 2.015625 -23.378906 2.015625 -24.921875 C 2.015625 -26.460938 2.0625 -27.992188 2.15625 -29.515625 C 2.15625 -29.898438 2.164062 -30.503906 2.1875 -31.328125 C 2.207031 -32.148438 2.226562 -33.070312 2.25 -34.09375 C 2.269531 -35.113281 2.3125 -36.1875 2.375 -37.3125 C 2.4375 -38.445312 2.519531 -39.503906 2.625 -40.484375 C 2.738281 -41.460938 2.894531 -42.296875 3.09375 -42.984375 C 3.289062 -43.679688 3.519531 -44.117188 3.78125 -44.296875 C 4.78125 -44.941406 5.882812 -45.554688 7.09375 -46.140625 C 8.3125 -46.734375 9.570312 -47.242188 10.875 -47.671875 C 12.175781 -48.109375 13.476562 -48.457031 14.78125 -48.71875 C 16.082031 -48.976562 17.320312 -49.109375 18.5 -49.109375 C 20.101562 -49.109375 21.65625 -48.878906 23.15625 -48.421875 C 24.65625 -47.972656 25.957031 -47.289062 27.0625 -46.375 C 28.175781 -45.46875 29.066406 -44.347656 29.734375 -43.015625 C 30.410156 -41.691406 30.75 -40.1875 30.75 -38.5 Z M 19.9375 -35.046875 C 19.9375 -35.785156 19.707031 -36.328125 19.25 -36.671875 C 18.789062 -37.015625 18.191406 -37.1875 17.453125 -37.1875 C 16.847656 -37.1875 16.207031 -37.054688 15.53125 -36.796875 C 14.863281 -36.535156 14.289062 -36.191406 13.8125 -35.765625 C 13.675781 -35.628906 13.550781 -35.257812 13.4375 -34.65625 C 13.332031 -34.050781 13.25 -33.367188 13.1875 -32.609375 C 13.125 -31.847656 13.082031 -31.128906 13.0625 -30.453125 C 13.039062 -29.773438 13.03125 -29.332031 13.03125 -29.125 C 13.03125 -29.03125 13.03125 -28.882812 13.03125 -28.6875 C 13.03125 -28.5 13.039062 -28.296875 13.0625 -28.078125 C 13.082031 -27.859375 13.113281 -27.660156 13.15625 -27.484375 C 13.195312 -27.316406 13.265625 -27.234375 13.359375 -27.234375 C 14.097656 -27.234375 14.859375 -27.503906 15.640625 -28.046875 C 16.421875 -28.585938 17.125 -29.257812 17.75 -30.0625 C 18.375 -30.863281 18.894531 -31.71875 19.3125 -32.625 C 19.726562 -33.539062 19.9375 -34.347656 19.9375 -35.046875 Z M 19.671875 -16.21875 C 19.671875 -16.957031 19.410156 -17.476562 18.890625 -17.78125 C 18.367188 -18.082031 17.78125 -18.234375 17.125 -18.234375 C 16.519531 -18.234375 15.878906 -18.09375 15.203125 -17.8125 C 14.535156 -17.53125 13.984375 -17.195312 13.546875 -16.8125 C 13.421875 -16.71875 13.320312 -16.5 13.25 -16.15625 C 13.1875 -15.8125 13.144531 -15.429688 13.125 -15.015625 C 13.101562 -14.597656 13.082031 -14.203125 13.0625 -13.828125 C 13.039062 -13.460938 13.03125 -13.21875 13.03125 -13.09375 C 13.03125 -13.007812 13.03125 -12.835938 13.03125 -12.578125 C 13.03125 -12.316406 13.039062 -12.039062 13.0625 -11.75 C 13.082031 -11.46875 13.125 -11.207031 13.1875 -10.96875 C 13.25 -10.738281 13.328125 -10.625 13.421875 -10.625 C 14.023438 -10.625 14.695312 -10.796875 15.4375 -11.140625 C 16.175781 -11.484375 16.859375 -11.914062 17.484375 -12.4375 C 18.117188 -12.957031 18.640625 -13.554688 19.046875 -14.234375 C 19.460938 -14.910156 19.671875 -15.570312 19.671875 -16.21875 Z M 19.671875 -16.21875 "/></g></g></g></g></g></g></g></g></mask><clipPath id="2e6218d5cc"><path d="M 0 0 L 75 0 L 75 75 L 0 75 Z M 0 0 " clip-rule="nonzero"/></clipPath><clipPath id="6893c27cf0"><rect x="0" width="75" y="0" height="75"/></clipPath><clipPath id="cfc34d9b29"><rect x="0" width="75" y="0" height="75"/></clipPath><clipPath id="3381794ae6"><rect x="0" width="75" y="0" height="75"/></clipPath><clipPath id="4463ee3038"><path d="M 0 0 L 75 0 L 75 75 L 0 75 Z M 0 0 " clip-rule="nonzero"/></clipPath><linearGradient x1="-102.939108" gradientTransform="matrix(0.363181, 0, 0, 0.363552, 37.385535, 8.274249)" y1="101.5" x2="103.569444" gradientUnits="userSpaceOnUse" y2="101.5" id="8368c09cd1"><stop stop-opacity="1" stop-color="rgb(0%, 59.21936%, 69.799805%)" offset="0"/><stop stop-opacity="1" stop-color="rgb(0.112915%, 59.27887%, 69.717407%)" offset="0.5"/><stop stop-opacity="1" stop-color="rgb(0.805664%, 59.642029%, 69.215393%)" offset="0.503906"/><stop stop-opacity="1" stop-color="rgb(1.385498%, 59.945679%, 68.797302%)" offset="0.507812"/><stop stop-opacity="1" stop-color="rgb(1.965332%, 60.249329%, 68.377686%)" offset="0.511719"/><stop stop-opacity="1" stop-color="rgb(2.546692%, 60.552979%, 67.959595%)" offset="0.515625"/><stop stop-opacity="1" stop-color="rgb(3.126526%, 60.856628%, 67.539978%)" offset="0.519531"/><stop stop-opacity="1" stop-color="rgb(3.70636%, 61.161804%, 67.121887%)" offset="0.523438"/><stop stop-opacity="1" stop-color="rgb(4.286194%, 61.465454%, 66.702271%)" offset="0.527344"/><stop stop-opacity="1" stop-color="rgb(4.867554%, 61.769104%, 66.28418%)" offset="0.53125"/><stop stop-opacity="1" stop-color="rgb(5.447388%, 62.072754%, 65.864563%)" offset="0.535156"/><stop stop-opacity="1" stop-color="rgb(6.027222%, 62.376404%, 65.446472%)" offset="0.539062"/><stop stop-opacity="1" stop-color="rgb(6.607056%, 62.680054%, 65.026855%)" offset="0.542969"/><stop stop-opacity="1" stop-color="rgb(7.18689%, 62.983704%, 64.608765%)" offset="0.546875"/><stop stop-opacity="1" stop-color="rgb(7.766724%, 63.287354%, 64.189148%)" offset="0.550781"/><stop stop-opacity="1" stop-color="rgb(8.348083%, 63.592529%, 63.771057%)" offset="0.554688"/><stop stop-opacity="1" stop-color="rgb(8.927917%, 63.896179%, 63.35144%)" offset="0.558594"/><stop stop-opacity="1" stop-color="rgb(9.507751%, 64.199829%, 62.93335%)" offset="0.5625"/><stop stop-opacity="1" stop-color="rgb(10.087585%, 64.503479%, 62.513733%)" offset="0.566406"/><stop stop-opacity="1" stop-color="rgb(10.668945%, 64.807129%, 62.094116%)" offset="0.570313"/><stop stop-opacity="1" stop-color="rgb(11.248779%, 65.110779%, 61.6745%)" offset="0.574219"/><stop stop-opacity="1" stop-color="rgb(11.828613%, 65.415955%, 61.256409%)" offset="0.578125"/><stop stop-opacity="1" stop-color="rgb(12.408447%, 65.719604%, 60.836792%)" offset="0.582031"/><stop stop-opacity="1" stop-color="rgb(12.989807%, 66.023254%, 60.418701%)" offset="0.585938"/><stop stop-opacity="1" stop-color="rgb(13.569641%, 66.326904%, 59.999084%)" offset="0.589844"/><stop stop-opacity="1" stop-color="rgb(14.149475%, 66.630554%, 59.580994%)" offset="0.59375"/><stop stop-opacity="1" stop-color="rgb(14.729309%, 66.934204%, 59.161377%)" offset="0.597656"/><stop stop-opacity="1" stop-color="rgb(15.309143%, 67.237854%, 58.743286%)" offset="0.601562"/><stop stop-opacity="1" stop-color="rgb(15.888977%, 67.541504%, 58.323669%)" offset="0.605469"/><stop stop-opacity="1" stop-color="rgb(16.470337%, 67.84668%, 57.905579%)" offset="0.609375"/><stop stop-opacity="1" stop-color="rgb(17.050171%, 68.15033%, 57.485962%)" offset="0.613281"/><stop stop-opacity="1" stop-color="rgb(17.630005%, 68.453979%, 57.067871%)" offset="0.617188"/><stop stop-opacity="1" stop-color="rgb(18.209839%, 68.757629%, 56.648254%)" offset="0.621094"/><stop stop-opacity="1" stop-color="rgb(18.791199%, 69.061279%, 56.230164%)" offset="0.625"/><stop stop-opacity="1" stop-color="rgb(19.371033%, 69.364929%, 55.810547%)" offset="0.628906"/><stop stop-opacity="1" stop-color="rgb(19.950867%, 69.670105%, 55.392456%)" offset="0.632812"/><stop stop-opacity="1" stop-color="rgb(20.530701%, 69.973755%, 54.972839%)" offset="0.636719"/><stop stop-opacity="1" stop-color="rgb(21.110535%, 70.277405%, 54.553223%)" offset="0.640625"/><stop stop-opacity="1" stop-color="rgb(21.690369%, 70.581055%, 54.133606%)" offset="0.644531"/><stop stop-opacity="1" stop-color="rgb(22.271729%, 70.884705%, 53.715515%)" offset="0.648438"/><stop stop-opacity="1" stop-color="rgb(22.851562%, 71.188354%, 53.295898%)" offset="0.652344"/><stop stop-opacity="1" stop-color="rgb(23.431396%, 71.492004%, 52.877808%)" offset="0.65625"/><stop stop-opacity="1" stop-color="rgb(24.01123%, 71.795654%, 52.458191%)" offset="0.660156"/><stop stop-opacity="1" stop-color="rgb(24.59259%, 72.10083%, 52.0401%)" offset="0.664063"/><stop stop-opacity="1" stop-color="rgb(25.172424%, 72.40448%, 51.620483%)" offset="0.667969"/><stop stop-opacity="1" stop-color="rgb(25.752258%, 72.70813%, 51.202393%)" offset="0.671875"/><stop stop-opacity="1" stop-color="rgb(26.332092%, 73.01178%, 50.782776%)" offset="0.675781"/><stop stop-opacity="1" stop-color="rgb(26.911926%, 73.31543%, 50.364685%)" offset="0.679688"/><stop stop-opacity="1" stop-color="rgb(27.49176%, 73.61908%, 49.945068%)" offset="0.683594"/><stop stop-opacity="1" stop-color="rgb(28.07312%, 73.924255%, 49.526978%)" offset="0.6875"/><stop stop-opacity="1" stop-color="rgb(28.652954%, 74.227905%, 49.107361%)" offset="0.691406"/><stop stop-opacity="1" stop-color="rgb(29.232788%, 74.531555%, 48.68927%)" offset="0.695313"/><stop stop-opacity="1" stop-color="rgb(29.812622%, 74.835205%, 48.269653%)" offset="0.699219"/><stop stop-opacity="1" stop-color="rgb(30.393982%, 75.138855%, 47.851562%)" offset="0.703125"/><stop stop-opacity="1" stop-color="rgb(30.973816%, 75.442505%, 47.431946%)" offset="0.707031"/><stop stop-opacity="1" stop-color="rgb(31.55365%, 75.746155%, 47.012329%)" offset="0.710938"/><stop stop-opacity="1" stop-color="rgb(32.133484%, 76.049805%, 46.592712%)" offset="0.714844"/><stop stop-opacity="1" stop-color="rgb(32.713318%, 76.35498%, 46.174622%)" offset="0.71875"/><stop stop-opacity="1" stop-color="rgb(33.293152%, 76.65863%, 45.755005%)" offset="0.722656"/><stop stop-opacity="1" stop-color="rgb(33.874512%, 76.96228%, 45.336914%)" offset="0.726563"/><stop stop-opacity="1" stop-color="rgb(34.454346%, 77.26593%, 44.917297%)" offset="0.730469"/><stop stop-opacity="1" stop-color="rgb(35.03418%, 77.56958%, 44.499207%)" offset="0.734375"/><stop stop-opacity="1" stop-color="rgb(35.614014%, 77.87323%, 44.07959%)" offset="0.738281"/><stop stop-opacity="1" stop-color="rgb(36.195374%, 78.178406%, 43.661499%)" offset="0.742188"/><stop stop-opacity="1" stop-color="rgb(36.775208%, 78.482056%, 43.241882%)" offset="0.746094"/><stop stop-opacity="1" stop-color="rgb(37.355042%, 78.785706%, 42.823792%)" offset="0.75"/><stop stop-opacity="1" stop-color="rgb(37.934875%, 79.089355%, 42.404175%)" offset="0.753906"/><stop stop-opacity="1" stop-color="rgb(38.516235%, 79.393005%, 41.986084%)" offset="0.757812"/><stop stop-opacity="1" stop-color="rgb(39.096069%, 79.696655%, 41.566467%)" offset="0.761719"/><stop stop-opacity="1" stop-color="rgb(39.675903%, 80.000305%, 41.148376%)" offset="0.765625"/><stop stop-opacity="1" stop-color="rgb(40.255737%, 80.303955%, 40.72876%)" offset="0.769531"/><stop stop-opacity="1" stop-color="rgb(40.835571%, 80.609131%, 40.310669%)" offset="0.773438"/><stop stop-opacity="1" stop-color="rgb(41.415405%, 80.912781%, 39.891052%)" offset="0.777344"/><stop stop-opacity="1" stop-color="rgb(41.996765%, 81.216431%, 39.472961%)" offset="0.78125"/><stop stop-opacity="1" stop-color="rgb(42.576599%, 81.520081%, 39.053345%)" offset="0.785156"/><stop stop-opacity="1" stop-color="rgb(43.156433%, 81.82373%, 38.633728%)" offset="0.789063"/><stop stop-opacity="1" stop-color="rgb(43.736267%, 82.12738%, 38.214111%)" offset="0.792969"/><stop stop-opacity="1" stop-color="rgb(44.317627%, 82.432556%, 37.796021%)" offset="0.796875"/><stop stop-opacity="1" stop-color="rgb(44.897461%, 82.736206%, 37.376404%)" offset="0.800781"/><stop stop-opacity="1" stop-color="rgb(45.477295%, 83.039856%, 36.958313%)" offset="0.804688"/><stop stop-opacity="1" stop-color="rgb(46.057129%, 83.343506%, 36.538696%)" offset="0.808594"/><stop stop-opacity="1" stop-color="rgb(46.636963%, 83.647156%, 36.120605%)" offset="0.8125"/><stop stop-opacity="1" stop-color="rgb(47.216797%, 83.950806%, 35.700989%)" offset="0.816406"/><stop stop-opacity="1" stop-color="rgb(47.798157%, 84.255981%, 35.282898%)" offset="0.820313"/><stop stop-opacity="1" stop-color="rgb(48.377991%, 84.559631%, 34.863281%)" offset="0.824219"/><stop stop-opacity="1" stop-color="rgb(48.957825%, 84.863281%, 34.44519%)" offset="0.828125"/><stop stop-opacity="1" stop-color="rgb(49.183655%, 84.980774%, 34.281921%)" offset="0.832031"/><stop stop-opacity="1" stop-color="rgb(49.409485%, 85.099792%, 34.118652%)" offset="0.835938"/><stop stop-opacity="1" stop-color="rgb(49.409485%, 85.099792%, 34.118652%)" offset="0.84375"/><stop stop-opacity="1" stop-color="rgb(49.409485%, 85.099792%, 34.118652%)" offset="0.875"/><stop stop-opacity="1" stop-color="rgb(49.409485%, 85.099792%, 34.118652%)" offset="1"/></linearGradient><clipPath id="cd64493a44"><rect x="0" width="75" y="0" height="75"/></clipPath><clipPath id="51e3c7ee19"><rect x="0" width="75" y="0" height="75"/></clipPath><clipPath id="1fcf8cc275"><rect x="0" width="75" y="0" height="75"/></clipPath><mask id="488e5e1ea5"><g filter="url(#59163257f5)"><g transform="matrix(1, 0, 0, 1, 0, -0.000000000000001893)"><g clip-path="url(#1fcf8cc275)"><g transform="matrix(1, 0, 0, 1, 0, -0.000000000000001893)"><g clip-path="url(#51e3c7ee19)"><g fill="#000000" fill-opacity="1"><g transform="translate(37.499998, 62.803851)"><g><path d="M 24.453125 -26.375 C 24.453125 -25.71875 24.375 -25.023438 24.21875 -24.296875 C 24.0625 -23.566406 23.8125 -22.890625 23.46875 -22.265625 C 23.125 -21.648438 22.675781 -21.132812 22.125 -20.71875 C 21.570312 -20.300781 20.894531 -20.09375 20.09375 -20.09375 C 18.882812 -20.09375 17.988281 -20.304688 17.40625 -20.734375 C 16.820312 -21.171875 16.40625 -21.71875 16.15625 -22.375 C 15.914062 -23.03125 15.785156 -23.726562 15.765625 -24.46875 C 15.753906 -25.21875 15.726562 -25.921875 15.6875 -26.578125 C 15.65625 -27.234375 15.546875 -27.773438 15.359375 -28.203125 C 15.171875 -28.640625 14.765625 -28.859375 14.140625 -28.859375 C 13.453125 -28.859375 12.847656 -28.609375 12.328125 -28.109375 C 11.804688 -27.609375 11.351562 -26.957031 10.96875 -26.15625 C 10.59375 -25.363281 10.273438 -24.46875 10.015625 -23.46875 C 9.765625 -22.46875 9.5625 -21.472656 9.40625 -20.484375 C 9.25 -19.503906 9.132812 -18.570312 9.0625 -17.6875 C 9 -16.8125 8.96875 -16.097656 8.96875 -15.546875 C 8.96875 -14.816406 8.992188 -13.953125 9.046875 -12.953125 C 9.097656 -11.953125 9.257812 -10.992188 9.53125 -10.078125 C 9.8125 -9.160156 10.226562 -8.378906 10.78125 -7.734375 C 11.332031 -7.097656 12.125 -6.78125 13.15625 -6.78125 C 13.84375 -6.78125 14.515625 -6.863281 15.171875 -7.03125 C 15.828125 -7.207031 16.484375 -7.410156 17.140625 -7.640625 C 17.796875 -7.867188 18.460938 -8.066406 19.140625 -8.234375 C 19.816406 -8.410156 20.5 -8.5 21.1875 -8.5 C 21.976562 -8.5 22.632812 -8.175781 23.15625 -7.53125 C 23.675781 -6.894531 23.9375 -6.179688 23.9375 -5.390625 C 23.9375 -4.285156 23.585938 -3.253906 22.890625 -2.296875 C 22.203125 -1.347656 21.347656 -0.515625 20.328125 0.203125 C 19.316406 0.929688 18.210938 1.5 17.015625 1.90625 C 15.828125 2.320312 14.75 2.53125 13.78125 2.53125 C 11.289062 2.53125 9.179688 1.96875 7.453125 0.84375 C 5.734375 -0.269531 4.335938 -1.71875 3.265625 -3.5 C 2.191406 -5.28125 1.421875 -7.265625 0.953125 -9.453125 C 0.492188 -11.648438 0.265625 -13.832031 0.265625 -16 C 0.265625 -17.457031 0.398438 -19.046875 0.671875 -20.765625 C 0.953125 -22.492188 1.367188 -24.226562 1.921875 -25.96875 C 2.472656 -27.71875 3.171875 -29.40625 4.015625 -31.03125 C 4.859375 -32.65625 5.847656 -34.085938 6.984375 -35.328125 C 8.128906 -36.566406 9.414062 -37.566406 10.84375 -38.328125 C 12.28125 -39.085938 13.863281 -39.46875 15.59375 -39.46875 C 17.28125 -39.46875 18.691406 -39.046875 19.828125 -38.203125 C 20.972656 -37.359375 21.890625 -36.285156 22.578125 -34.984375 C 23.273438 -33.691406 23.757812 -32.273438 24.03125 -30.734375 C 24.3125 -29.203125 24.453125 -27.75 24.453125 -26.375 Z M 24.453125 -26.375 "/></g></g></g></g></g></g></g></g></mask><clipPath id="a825c5b061"><path d="M 0 0 L 75 0 L 75 75 L 0 75 Z M 0 0 " clip-rule="nonzero"/></clipPath><clipPath id="4be7be6067"><rect x="0" width="75" y="0" height="75"/></clipPath><clipPath id="702246c6e1"><rect x="0" width="75" y="0" height="75"/></clipPath><clipPath id="b35dee34f2"><rect x="0" width="75" y="0" height="75"/></clipPath></defs><g clip-path="url(#eb0be2441a)"><g clip-path="url(#79afc135c2)"><g clip-path="url(#06092d0f9f)"><path fill="#000000" d="M 67.214844 41.65625 C 64.445312 45.148438 65.222656 50.136719 64.707031 54.566406 C 63.882812 61.703125 59.074219 68.253906 52.507812 71.191406 C 44.703125 74.667969 35.726562 73.050781 27.167969 72.96875 C 24.039062 72.933594 20.835938 73.113281 17.847656 72.183594 C 12.363281 70.488281 8.410156 64.984375 8.15625 59.253906 C 7.933594 54.269531 10.175781 49.265625 9.101562 44.394531 C 8.648438 42.363281 7.652344 40.5 6.792969 38.597656 C 4.359375 33.132812 3.160156 26.910156 4.648438 21.113281 C 6.136719 15.320312 10.695312 10.117188 16.570312 8.976562 C 19.4375 8.417969 22.433594 8.820312 25.296875 8.222656 C 30.980469 7.019531 35.34375 2.042969 41.066406 1.035156 C 43.957031 0.527344 46.945312 1.09375 49.714844 2.058594 C 50.617188 2.375 51.503906 2.734375 52.371094 3.132812 C 53.242188 3.53125 54.089844 3.972656 54.917969 4.453125 C 55.746094 4.933594 56.546875 5.449219 57.328125 6.007812 C 58.105469 6.5625 58.855469 7.152344 59.582031 7.78125 C 60.304688 8.40625 60.996094 9.066406 61.65625 9.757812 C 62.316406 10.449219 62.945312 11.167969 63.539062 11.921875 C 64.132812 12.671875 64.6875 13.449219 65.207031 14.25 C 65.726562 15.054688 66.207031 15.882812 66.648438 16.730469 C 67.09375 17.578125 67.492188 18.445312 67.855469 19.332031 C 68.214844 20.21875 68.53125 21.121094 68.804688 22.035156 C 69.082031 22.953125 69.3125 23.878906 69.5 24.820312 C 69.6875 25.757812 69.832031 26.703125 69.929688 27.652344 C 70.03125 28.605469 70.082031 29.558594 70.09375 30.515625 C 70.101562 31.472656 70.0625 32.429688 69.984375 33.382812 C 69.902344 34.335938 69.777344 35.28125 69.605469 36.222656 C 69.433594 37.164062 69.21875 38.097656 68.960938 39.019531 " fill-opacity="1" fill-rule="nonzero"/></g></g></g><g transform="matrix(1, 0, 0, 1, 0, -0.000000000000001893)"><g clip-path="url(#3381794ae6)"><g transform="matrix(1, 0, 0, 1, 0, -0.000000000000001893)"><g clip-path="url(#cfc34d9b29)"><g mask="url(#8ea4705df3)"><g transform="matrix(1, 0, 0, 1, 0, -0.000000000000001893)"><g clip-path="url(#6893c27cf0)"><g clip-path="url(#2e6218d5cc)"><rect x="-40.26" fill="url(#fd0cf91ac2)" width="155.52" height="155.519994" y="-40.259998"/></g></g></g></g></g></g></g></g><g transform="matrix(1, 0, 0, 1, 0, -0.000000000000001893)"><g clip-path="url(#b35dee34f2)"><g transform="matrix(1, 0, 0, 1, 0, -0.000000000000001893)"><g clip-path="url(#702246c6e1)"><g mask="url(#488e5e1ea5)"><g transform="matrix(1, 0, 0, 1, 0, -0.000000000000001893)"><g clip-path="url(#4be7be6067)"><g clip-path="url(#a825c5b061)"><rect x="-40.26" fill="url(#8368c09cd1)" width="155.52" height="155.519994" y="-40.259998"/></g></g></g></g></g></g></g></g></svg>